<?xml version="1.0" encoding="UTF-8" standalone="no"?>
<!-- Created with Inkscape (http://www.inkscape.org/) -->
<svg id="svg2" xmlns:rdf="http://www.w3.org/1999/02/22-rdf-syntax-ns#" xmlns="http://www.w3.org/2000/svg" height="16.933mm" width="84.676mm" version="1.1" xmlns:cc="http://creativecommons.org/ns#" xmlns:dc="http://purl.org/dc/elements/1.1/" viewBox="0 0 300.03354 60.00001">
 <metadata id="metadata7">
  <rdf:RDF>
   <cc:Work rdf:about="">
    <dc:format>image/svg+xml</dc:format>
    <dc:type rdf:resource="http://purl.org/dc/dcmitype/StillImage"/>
    <dc:title/>
   </cc:Work>
  </rdf:RDF>
 </metadata>
 <g id="layer2" transform="translate(-.0000014531 -992.36)">
  <g id="text3353" fill="#b6bda8" transform="translate(-6)">
   <path id="path4145" d="m121.94 1009.5q-0.53691-1.0067-0.73825-1.7449-0.2-0.7-0.2-1.7 0-0.3356 0-0.6711 0.0671-0.3356 0.20135-0.6041 0.20134-0.2684 0.53691-0.4026 0.40268-0.1343 1.0067 0.067 0.40268 0.1342 0.80537 0.5369 0.40268 0.3355 0.73825 0.9396 0.40269 0.5369 0.60403 1.0738 0.26846 0.5369 0.40269 0.8725 1.5436-1.2081 3.3557-2.4161 1.8121-1.2752 3.8255-2.2148 2.0805-1.0067 4.1611-1.6107 2.1476-0.6041 4.094-0.6041 0.67114 0 1.6107 0.1343 0.9396 0.1342 1.745 0.4698 0.87248 0.3355 1.4094 0.9396 0.60402 0.5369 0.60402 1.4094 0.20135 1.6107-0.40268 3.2886-0.53691 1.6107-1.5436 3.1543-0.9396 1.5436-2.2148 3.0202-1.208 1.4765-2.4832 2.8187-1.208 1.3423-2.2819 2.4833-1.0067 1.1409-1.5436 2.0134 2.7517-1.8121 5.906-2.6175 3.2215-0.8724 6.443-0.8724 1.0067 0 2.1476 0.1342 1.208 0.067 2.2148 0.4698 1.0067 0.4027 1.6779 1.1409 0.67114 0.7383 0.67114 2.0806 0 1.3422-1.2752 3.7583-1.208 2.349-3.2215 5.2349-1.9463 2.8188-4.3624 5.7719-2.349 2.8859-4.5638 5.302-2.2148 2.349-4.0268 3.8926-1.745 1.4765-2.4832 1.4765l-1.745-0.8054q0.33557-1.2751 1.6778-3.0201 1.3423-1.745 3.1544-3.6242 1.8792-1.8792 3.9597-3.9597 2.1476-2.0805 4.0268-4.0268t3.2886-3.7584q1.4094-1.8792 1.8121-3.3557 0.4698-1.5437-0.33557-2.5504-0.80537-1.0738-3.2886-1.6107-2.6174 0-5.5034 0.9396-2.8859 0.8725-5.5034 2.5503-2.6174 1.6779-4.698 4.0269-2.0134 2.2819-2.953 5.1678 0 1.8792 0.26846 3.6912 0.33557 1.8121 0.67114 3.6242 0.33557 1.745 0.60402 3.557 0.33557 1.8121 0.33557 3.6242 0 1.3423-0.20134 2.2148-0.20134 0.8724-1.6778 0.8724-0.13423 0-0.4698 0-0.26845-0.067-0.26845-0.1342l-5.9732-40.403zm4.2953 4.2282q0 2.4832 0.33557 5.302 0.33557 2.7517 1.3423 5.1007 1.0067-0.8725 2.4832-2.2819 1.5436-1.4765 3.1544-3.1543 1.6778-1.6779 3.2215-3.5571 1.6107-1.8792 2.8859-3.6241 1.3423-1.745 2.0805-3.2215 0.80537-1.5436 0.80537-2.5504 0-0.8053-0.53692-1.0738-0.46979-0.2684-1.1409-0.2684-1.6107 0-4.1611 0.6711-2.4832 0.6711-4.8322 1.8792-2.2819 1.2081-3.9597 2.953-1.6779 1.6779-1.6779 3.8255z"/>
   <path id="path4147" d="m177.04 1049.1q-0.33557-1.7449-0.60403-4.161-0.20134-2.4833-0.4698-4.9665-0.26845-2.5503-0.67114-4.7651-0.33557-2.2147-1.0738-3.6241-3.4228 6.9798-6.0403 11.007-2.6174 3.9597-4.6309 5.7047-1.9463 1.6778-3.2886 1.6107-1.3423-0.067-2.2148-1.208-0.87248-1.141-1.2752-2.886-0.33557-1.812-0.46979-3.3557 0-1.4765 0.67114-4.161 0.67114-2.6846 1.8121-5.839 1.1409-3.2214 2.6846-6.51 1.6107-3.2886 3.4228-5.9732 1.8121-2.6845 3.7584-4.4295t3.8926-1.745q2.8859-0.4698 4.2282 1.2752 1.4094 1.6778 0.53692 5.7047 0 4.4295 0.33557 7.5839 0.40268 3.1543 0.80537 6.0403 0.46979 2.8859 0.80537 6.0402 0.40268 3.1544 0.40268 7.5839 0 0.8054-0.20134 1.4094-0.13423 0.5369-1.6107 0.5369-0.20134 0-0.53691-0.3356-0.26846-0.3355-0.26846-0.5369zm-3.6242-30q-0.73826-1.0738-2.0134-0.2013-1.2752 0.8725-2.6846 2.8859t-2.8859 4.8322-2.7517 5.7047-2.2148 5.5034q-0.93959 2.5503-1.2752 4.2282 0 2.4161 0.73825 2.7516 0.73826 0.2685 1.8121-0.8053 1.0738-1.0739 2.4161-3.0873 1.4094-2.0134 2.6846-4.2953 1.3423-2.2819 2.4832-4.4295 1.2081-2.1477 1.8792-3.4899 0.60403-1.4094 0.9396-2.6175t0.53691-2.2819q0.26845-1.1409 0.26845-2.2819 0.0671-1.1409 0.0671-2.4161z"/>
   <path id="path4149" d="m183.21 1018.5v-0.5369q0-0.6711 0.4698-0.9396 0.53691-0.2685 1.208-0.2685 0.53691 0 1.0067 0.1343 0.4698 0.067 0.73826 0.7382 0.20134 1.0067 0.40268 2.8188 0.20134 1.745 0.4698 3.8926 0.26846 2.1477 0.53691 4.5638 0.33557 2.349 0.60403 4.4966 0.33557 2.0806 0.67114 3.7584 0.33557 1.6779 0.73826 2.5504-0.20135-6.443 0.40268-11.141 0.60403-4.7651 2.2819-7.7181 1.745-3.0201 4.698-4.1611 3.0201-1.208 7.5168-0.5369 2.0805 0 2.0805 2.2148 0 0.8725-1.1409 1.208-1.1409 0.2685-2.5503 0.4027-1.4094 0.067-2.7517 0.2014-1.3423 0.1342-1.9463 0.6711-2.4161 1.3423-3.4228 4.1611-0.9396 2.8188-1.3423 6.6443-0.40268 3.8255-0.60403 8.3892-0.13423 4.4967-0.87248 9.2618 0 0.6711-0.53691 1.0067-0.53692 0.3356-1.3423 0.3356-0.73826 0-1.4765-0.3356-0.67115-0.3356-1.0738-1.0067l-4.7651-30.805z"/>
   <path id="path4151" d="m212.28 1022.2q-0.67114 0.3356-1.2752 0.7382-0.53691 0.3356-1.0738 0.6712-0.53691 0.2684-1.0738 0.4027-0.53691 0.1342-1.1409 0-0.40268 0-0.67114-0.4698-0.26845-0.5369-0.40268-1.141-0.20134-0.6711-0.26846-1.2751-0.0671-0.6712 0-1.0068l6.443-3.6912 0.40269-17.181q0.13423-0.87249 1.0738-0.67114 0.9396 0.13422 1.9463 0.40268 0.13423 0 0.40269 0.13423 0.33557 0.0671 0.4698 0.13423-0.13423 1.812-0.33557 3.9597-0.13423 2.0805-0.26846 4.2282-0.13423 2.0805-0.20134 4.0939 0 2.0135 0.20134 3.6242l10.067-2.8188q0.26846-0.067 0.40269 0.4027 0.20134 0.4027 0.33557 1.0067 0.20134 0.604 0.26845 1.2081 0.0671 0.604 0.0671 0.604l-11.409 4.8322q0 0.604 0.0671 2.8859 0.13423 2.2819 0.26845 5.4363 0.13423 3.0872 0.26846 6.7114 0.13423 3.557 0.26846 6.6443 0.13422 3.0872 0.20134 5.4362 0.0671 2.2819 0.0671 2.8859-0.13423 2.0134-1.208 2.0134-1.0067 0-2.2148-1.0067l-1.6778-29.195z"/>
   <path id="path4153" d="m230.4 1047.4q0.4698-3.0873 0.60402-7.7181 0.20135-4.6309 0.13423-9.8658 0-5.2349-0.20134-10.805-0.20134-5.5704-0.53691-10.537-0.33557-5.0335-0.80537-8.9933-0.40269-3.9597-0.87248-6.2416 0.60402-0.40268 1.0067-0.60402 0.4698-0.26846 1.0738-0.26846 0.4698 0 0.80537 0.20134 0.33557 0.13423 0.53691 0.67114 1.3423 13.154 1.8121 26.51 0.53692 13.356 0.80537 26.577 0 0.604 0 1.6778 0 1.0067-0.0671 1.0738-0.9396 0.4698-1.6778 0.4698-0.73826-0.067-1.3423-0.4026-0.60403-0.4027-0.9396-0.8725t-0.33557-0.8725z"/>
   <path id="path4155" d="m240.46 1036.3q-0.33557 0.067-1.0067 0.2013-0.67114 0.1342-1.4094 0.067-0.73825-0.067-1.2752-0.4027-0.60402-0.3355-0.60402-1.1409 0-0.4698 0.20134-0.6711 0.20134-0.2014 0.67114-0.6041 1.4765-1.208 2.4832-3.0872 1.0738-1.9463 1.9463-4.094 0.87248-2.2147 1.8121-4.3624 1.0067-2.2148 2.2819-3.9597 1.2752-1.745 3.1544-2.8188t4.6309-1.0067q1.1409 0 2.5503 0.5369t2.6174 1.4765q1.208 0.8725 2.0134 2.1476 0.80537 1.2752 0.80537 2.8188 0.33557 0.5369-0.67114 1.5437-0.9396 1.0067-2.6174 2.2147-1.6778 1.141-3.8255 2.4161-2.0805 1.2081-4.0268 2.2819t-3.4228 1.8792-1.9463 1.2081q-0.33557 0.6711-0.53691 1.5436t-0.33557 1.6778q-0.0671 0.7383-0.13423 1.4094 0 0.6041 0 0.9396 0 1.2752-0.13423 2.8188-0.0671 1.5436 0.13423 2.953 0.26846 1.3423 1.1409 2.2819 0.87248 0.8725 2.953 0.8725 2.2148 0 4.1611-1.0738 1.9463-1.141 3.6242-2.7517 1.6778-1.6107 3.0201-3.4899 1.4094-1.8792 2.4832-3.49 1.1409-1.6778 2.0134-2.7516 0.87249-1.0739 1.4765-1.0739 0.67115 0 1.4094 0.2685 0.80537 0.2013 0.80537 1.0738 0 1.2081-1.0067 2.8859-0.9396 1.6779-2.5503 3.5571-1.5436 1.8792-3.6242 3.7584-2.0134 1.812-4.094 3.2885-2.0805 1.4094-4.094 2.349-2.0134 0.8725-3.557 0.8725-3.0201 0-4.5638-1.4765-1.5436-1.4765-2.2148-3.6913-0.60402-2.2147-0.67114-4.698 0-2.5503-0.0671-4.6979zm12.349-18.121q-1.1409 0-2.4161 1.1409-1.2752 1.0738-2.4161 2.6846-1.0738 1.5436-1.8121 3.2214-0.67115 1.6108-0.67115 2.6846 1.0067 0 2.8859-0.7383 1.9463-0.8053 3.8255-1.9463 1.8792-1.1409 3.2886-2.4161 1.4094-1.2751 1.4094-2.4161 0-0.604-0.4698-1.0067t-1.1409-0.6711q-0.60402-0.2685-1.2752-0.4027-0.67114-0.1342-1.208-0.1342z"/>
   <path id="path4157" d="m272.14 1022.2q-0.67114 0.3356-1.2752 0.7382-0.53691 0.3356-1.0738 0.6712-0.53691 0.2684-1.0738 0.4027-0.53691 0.1342-1.1409 0-0.40269 0-0.67114-0.4698-0.26846-0.5369-0.40269-1.141-0.20134-0.6711-0.26845-1.2751-0.0671-0.6712 0-1.0068l6.443-3.6912 0.40268-17.181q0.13423-0.87249 1.0738-0.67114 0.9396 0.13422 1.9463 0.40268 0.13423 0 0.40268 0.13423 0.33557 0.0671 0.4698 0.13423-0.13423 1.812-0.33557 3.9597-0.13423 2.0805-0.26845 4.2282-0.13423 2.0805-0.20135 4.0939 0 2.0135 0.20135 3.6242l10.067-2.8188q0.26846-0.067 0.40268 0.4027 0.20135 0.4027 0.33557 1.0067 0.20135 0.604 0.26846 1.2081 0.0671 0.604 0.0671 0.604l-11.409 4.8322q0 0.604 0.0671 2.8859 0.13423 2.2819 0.26846 5.4363 0.13423 3.0872 0.26846 6.7114 0.13422 3.557 0.26845 6.6443 0.13423 3.0872 0.20134 5.4362 0.0671 2.2819 0.0671 2.8859-0.13423 2.0134-1.2081 2.0134-1.0067 0-2.2148-1.0067l-1.6778-29.195z"/>
   <path id="path4159" d="m290.66 1022.2q-0.67114 0.3356-1.2752 0.7382-0.53691 0.3356-1.0738 0.6712-0.53692 0.2684-1.0738 0.4027-0.53691 0.1342-1.1409 0-0.40268 0-0.67114-0.4698-0.26845-0.5369-0.40268-1.141-0.20135-0.6711-0.26846-1.2751-0.0671-0.6712 0-1.0068l6.443-3.6912 0.40269-17.181q0.13423-0.87249 1.0738-0.67114 0.9396 0.13422 1.9463 0.40268 0.13423 0 0.40269 0.13423 0.33557 0.0671 0.4698 0.13423-0.13423 1.812-0.33558 3.9597-0.13422 2.0805-0.26845 4.2282-0.13423 2.0805-0.20134 4.0939 0 2.0135 0.20134 3.6242l10.067-2.8188q0.26846-0.067 0.40269 0.4027 0.20134 0.4027 0.33557 1.0067 0.20134 0.604 0.26845 1.2081 0.0671 0.604 0.0671 0.604l-11.409 4.8322q0 0.604 0.0671 2.8859 0.13422 2.2819 0.26845 5.4363 0.13423 3.0872 0.26846 6.7114 0.13423 3.557 0.26846 6.6443 0.13422 3.0872 0.20134 5.4362 0.0671 2.2819 0.0671 2.8859-0.13423 2.0134-1.208 2.0134-1.0067 0-2.2148-1.0067l-1.6778-29.195z"/>
  </g>
 </g>
 <g id="layer1" transform="translate(-.0000014531 -992.36)">
  <g id="flowRoot3336" fill="#807f7c" transform="matrix(2.0122 0 0 2.0122 -81.432 331.42)">
   <path id="path4162" d="m44.727 355.66q0.07813-0.39063 0.97656-0.74219 0.89844-0.35156 2.2266-0.74219 1.3281-0.39062 2.9297-0.85937t3.0859-1.0547q1.4844-0.58594 2.6953-1.3281 1.25-0.74218 1.8359-1.7188 0-0.58593-0.78125-0.89843-0.74219-0.3125-2.0312-0.50782-1.25-0.23437-2.8906-0.35156-1.6016-0.15625-3.3203-0.39062-1.6797-0.27344-3.3203-0.625-1.6016-0.39063-2.8906-1.0547-1.25-0.70313-2.0312-1.7578-0.74219-1.0547-0.74219-2.5781t0.66406-3.0078q0.66406-1.5234 1.7578-2.9297 1.1328-1.4062 2.5391-2.6172 1.4453-1.2109 3.0078-2.1094 1.5625-0.89844 3.0859-1.4062 1.5625-0.50781 2.8906-0.50781 0.35156 0 0.74219 0 0.39062-0.0391 0.66406 0.0391 0.3125 0.0391 0.50781 0.27344 0.19531 0.23437 0.19531 0.70312 0 1.1328-0.74219 1.6406-0.74219 0.46875-1.7969 0.46875l-1.5234-1.0938q-0.89844 0-1.9922 0.50781-1.0547 0.50781-2.1875 1.3672-1.0938 0.82031-2.1484 1.9141-1.0547 1.0938-1.875 2.2656-0.78125 1.1719-1.2891 2.3438-0.46875 1.1719-0.46875 2.1094 0 1.3672 0.74219 2.2266 0.78125 0.82031 2.0312 1.3281 1.2891 0.46875 2.9297 0.70312 1.6406 0.23438 3.3203 0.39063t3.3203 0.3125q1.6406 0.11718 2.8906 0.46875 1.2891 0.35156 2.0312 0.9375 0.78125 0.58593 0.78125 1.6016 0.42969 0.625-0.19531 1.4453-0.58594 0.78125-1.875 1.6016-1.25 0.78125-3.0078 1.6016-1.7188 0.78125-3.5547 1.4453-1.8359 0.625-3.5547 1.0938-1.7188 0.42969-2.9297 0.54687-0.35156 0-0.625-0.23437-0.23438-0.23438-0.07813-0.82031z"/>
   <path id="path4164" d="m72.578 352.97q-0.15625 0.46875-0.78125 1.2891-0.58594 0.78125-1.4062 1.6016-0.82031 0.78125-1.7188 1.4062-0.85938 0.58594-1.5234 0.58594-1.25 0-2.0703-1.1719-0.78125-1.1719-1.2109-3.0078-0.42969-1.8359-0.58594-4.0625-0.15625-2.2656-0.19531-4.4141-0.03906-2.1484-0.03906-3.9062t-0.11719-2.6562q0.15625-0.39063 0.39062-0.46875 0.27344-0.0781 0.625-0.0781 0.3125 0 0.54688 0.0781 0.27344 0.0781 0.46875 0.46875 0 0.42968 0 1.4453 0.03906 1.0156 0.11719 2.3047 0.07813 1.25 0.15625 2.6562 0.07813 1.3672 0.11719 2.6172 0.07813 1.25 0.11719 2.2656 0.07813 0.97656 0.11719 1.4453 0.03906 0.27344 0.07813 0.89844 0.07813 0.625 0.19531 1.3281 0.15625 0.66407 0.35156 1.2109 0.23438 0.54688 0.58594 0.58594 0.58594 0 1.1719-0.50781 0.625-0.50782 1.2109-1.2891 0.58594-0.78125 1.0938-1.7188 0.50781-0.9375 0.89844-1.7969 0.42969-0.89844 0.625-1.6016 0.23438-0.70313 0.27344-1.0156 0.07813-0.66406 0.15625-1.875 0.07813-1.25 0.11719-2.6562t0.03906-2.6562q0.03906-1.25 0.03906-1.9141l2.1484 0.11719q0.03906 3.1641-0.03906 5.7422-0.07813 2.5391-0.03906 4.8047 0.03906 2.2266 0.35156 4.3359 0.3125 2.1094 1.1328 4.375-0.11719 0.11719-0.46875 0.3125-0.35156 0.23437-0.50781 0.23437-0.97656 0-1.3281-0.66406-0.3125-0.625-0.42969-1.4844-0.07813-0.89844-0.15625-1.7578-0.03906-0.89843-0.50781-1.4062z"/>
   <path id="path4166" d="m79.336 349.06q-0.19531 0.0391-0.58594 0.11719-0.39062 0.0781-0.82031 0.0391-0.42969-0.0391-0.74219-0.23437-0.35156-0.19531-0.35156-0.66406 0-0.27344 0.11719-0.39063t0.39062-0.35156q0.85938-0.70313 1.4453-1.7969 0.625-1.1328 1.1328-2.3828 0.50781-1.2891 1.0547-2.5391 0.58594-1.2891 1.3281-2.3047 0.74219-1.0156 1.8359-1.6406 1.0938-0.625 2.6953-0.58594 0.66406 0 1.4844 0.3125 0.82031 0.3125 1.5234 0.85937 0.70312 0.50782 1.1719 1.25 0.46875 0.74219 0.46875 1.6406 0.19531 0.3125-0.39062 0.89844-0.54688 0.58593-1.5234 1.2891-0.97656 0.66406-2.2266 1.4062-1.2109 0.70312-2.3438 1.3281-1.1328 0.625-1.9922 1.0938-0.85938 0.46875-1.1328 0.70313-0.19531 0.39062-0.3125 0.89844-0.11719 0.50781-0.19531 0.97656-0.03906 0.42969-0.07813 0.82031 0 0.35156 0 0.54688 0 0.74218-0.07813 1.6406-0.03906 0.89844 0.07813 1.7188 0.15625 0.78125 0.66406 1.3281 0.50781 0.50781 1.7188 0.50781 1.2891 0 2.4219-0.625 1.1328-0.66406 2.1094-1.6016 0.97656-0.9375 1.7578-2.0312 0.82031-1.0938 1.4453-2.0312 0.66406-0.97657 1.1719-1.6016 0.50781-0.625 0.85938-0.625 0.39062 0 0.82031 0.15625 0.46875 0.11719 0.46875 0.625 0 0.70313-0.58594 1.6797-0.54688 0.97656-1.4844 2.0703-0.89844 1.0938-2.1094 2.1875-1.1719 1.0547-2.3828 1.9141-1.2109 0.82031-2.3828 1.3672-1.1719 0.50782-2.0703 0.50782-1.7578 0-2.6562-0.85938-0.89844-0.85937-1.2891-2.1484-0.35156-1.2891-0.39062-2.7344 0-1.4844-0.03906-2.7344zm7.1875-10.547q-0.66406 0-1.4062 0.66406-0.74219 0.625-1.4062 1.5625-0.625 0.89844-1.0547 1.875-0.39062 0.9375-0.39062 1.5625 0.58594 0 1.6797-0.42969 1.1328-0.46875 2.2266-1.1328 1.0938-0.66406 1.9141-1.4062 0.82031-0.74219 0.82031-1.4062 0-0.35156-0.27344-0.58594-0.27344-0.23437-0.66406-0.39062-0.35156-0.15625-0.74219-0.23438-0.39062-0.0781-0.70312-0.0781z"/>
  </g>
  <flowRoot id="flowRoot3344" style="word-spacing:0px;letter-spacing:0px" xml:space="preserve" font-size="40px" transform="translate(4.2996 -.64352)" line-height="125%" font-family="&apos;Shadows Into Light&apos;" fill="#000000"><flowRegion id="flowRegion3346"><rect id="rect3348" height="57.143" width="140" y="332.36" x="160"/></flowRegion><flowPara id="flowPara3350">Bartlett</flowPara></flowRoot>
 </g>
</svg>
