<?xml version="1.0" encoding="UTF-8" standalone="no"?>
<!-- Created with Inkscape (http://www.inkscape.org/) -->

<svg
   xmlns:dc="http://purl.org/dc/elements/1.1/"
   xmlns:cc="http://creativecommons.org/ns#"
   xmlns:rdf="http://www.w3.org/1999/02/22-rdf-syntax-ns#"
   xmlns:svg="http://www.w3.org/2000/svg"
   xmlns="http://www.w3.org/2000/svg"
   xmlns:sodipodi="http://sodipodi.sourceforge.net/DTD/sodipodi-0.dtd"
   xmlns:inkscape="http://www.inkscape.org/namespaces/inkscape"
   width="69.536934mm"
   height="16.933338mm"
   viewBox="0 0 246.39071 60.000017"
   id="svg2"
   version="1.1"
   inkscape:version="0.91 r13725"
   sodipodi:docname="sb-logo-a-p.svg"
   inkscape:export-filename="/home/rik/Documents/Sue Bartlett/Logo/sb-logo.png"
   inkscape:export-xdpi="90"
   inkscape:export-ydpi="90">
  <defs
     id="defs4" />
  <sodipodi:namedview
     id="base"
     pagecolor="#ffffff"
     bordercolor="#666666"
     borderopacity="1.0"
     inkscape:pageopacity="0.0"
     inkscape:pageshadow="2"
     inkscape:zoom="2.3150307"
     inkscape:cx="65.92092"
     inkscape:cy="97.922709"
     inkscape:document-units="px"
     inkscape:current-layer="layer1"
     showgrid="false"
     inkscape:window-width="1366"
     inkscape:window-height="711"
     inkscape:window-x="0"
     inkscape:window-y="27"
     inkscape:window-maximized="1"
     fit-margin-top="0"
     fit-margin-left="0"
     fit-margin-right="0"
     fit-margin-bottom="0" />
  <metadata
     id="metadata7">
    <rdf:RDF>
      <cc:Work
         rdf:about="">
        <dc:format>image/svg+xml</dc:format>
        <dc:type
           rdf:resource="http://purl.org/dc/dcmitype/StillImage" />
        <dc:title></dc:title>
      </cc:Work>
    </rdf:RDF>
  </metadata>
  <g
     inkscape:groupmode="layer"
     id="layer2"
     inkscape:label="Bartlett"
     transform="translate(-2.728e-6,-992.3622)">
    <g
       style="font-style:normal;font-variant:normal;font-weight:normal;font-stretch:normal;font-size:78.22686005px;line-height:125%;font-family:'Shadows Into Light';-inkscape-font-specification:'Shadows Into Light, ';letter-spacing:0px;word-spacing:0px;fill:#000000;fill-opacity:1;stroke:none;stroke-width:1px;stroke-linecap:butt;stroke-linejoin:miter;stroke-opacity:1"
       id="text3353">
      <path
         d="m 83.623814,1051.6582 q -3.598435,0 -3.598435,-1.9557 l 0.156453,-9.6219 0.156454,-9.6219 q 0,-5.2412 -0.234681,-15.8801 -0.23468,-10.5606 -0.23468,-15.88002 l 0,-0.46936 q 0,-2.0339 0.391134,-3.75489 0.469361,-2.11213 2.50326,-2.11213 5.47588,0 8.683181,3.52021 3.207301,3.52021 3.207301,9.30899 0,3.5202 -1.877444,7.3533 -1.877445,3.8331 -4.458931,5.7106 4.537158,3.0508 6.649283,7.9009 2.190352,4.7718 2.190352,10.5606 0,2.738 -1.877445,6.8058 -2.268579,4.85 -6.179922,6.9622 -2.346806,1.1734 -5.162972,1.1734 l -0.312908,0 z m 0.782269,-34.5763 q 2.033898,-0.4694 3.441982,-3.3638 1.173402,-2.1903 2.190352,-5.3194 0.23468,-0.8605 0.782268,-2.1903 l 0,-2.738 q 0,-2.3468 -1.720991,-4.53714 -1.720991,-2.19035 -3.911343,-2.19035 -1.095176,0 -1.095176,2.42503 0,5.16296 0.156454,9.23076 l 0.156454,8.6832 z m 0.312907,30.5085 q 3.833116,-0.5476 6.101695,-3.5202 2.268579,-2.9727 2.268579,-7.1187 0,-3.5984 -0.625815,-6.571 -0.547588,-3.0509 -1.48631,-4.6154 -0.860496,-1.4863 -1.720991,-2.5033 -0.860495,-1.0169 -1.48631,-1.3298 l -0.625815,-0.2347 -2.816167,0 q 0.391134,8.9961 0.391134,25.8931 z"
         style="font-style:normal;font-variant:normal;font-weight:bold;font-stretch:normal;font-family:'Amatic SC';-inkscape-font-specification:'Amatic SC Bold';fill:#b6bda8;fill-opacity:1"
         id="path4856"
         inkscape:connector-curvature="0" />
      <path
         d="m 120.03475,1051.7364 q -1.79922,0 -2.65971,-0.5476 -0.8605,-0.5476 -0.8605,-2.0339 0,-2.3468 -0.78227,-7.9791 l -0.3129,-1.6428 -7.74446,-1.1734 q -0.46936,1.7992 -1.32986,7.2751 -0.46936,3.8331 -1.48631,5.0847 -0.54759,0.7041 -1.56454,0.7041 -0.93872,0 -1.72099,-0.5476 -0.78227,-0.6258 -0.78227,-1.4863 l 0.15646,-0.3911 0.0782,-0.313 q 5.16298,-20.1043 7.82269,-39.661 0,-0.3129 0.0782,-1.0169 0.0782,-0.7823 0.15645,-2.1904 0.23468,-2.8944 0.46936,-4.6154 0.31291,-1.72095 0.93872,-2.58145 l 2.65972,0 q 1.09517,0 1.87744,0.54759 0.78227,0.46936 0.78227,1.40806 0,5.9453 1.64276,17.6793 1.56454,12.0469 1.56454,16.897 0,0.4694 0.39114,2.425 0.39113,1.7992 0.39113,2.3468 0,0.5476 0.78227,4.6936 0.70404,3.7549 0.70404,4.8501 l 0,0.078 q 0,1.721 -1.25163,2.1904 z m -5.16297,-15.0196 q -0.23468,-1.1734 -0.23468,-2.8944 0,-7.0404 -1.25163,-17.9921 l -0.78227,-8.1356 q -3.36376,18.3833 -4.61539,27.7705 1.17341,0.7823 6.88397,1.2516 z"
         style="font-style:normal;font-variant:normal;font-weight:bold;font-stretch:normal;font-family:'Amatic SC';-inkscape-font-specification:'Amatic SC Bold';fill:#b6bda8;fill-opacity:1"
         id="path4858"
         inkscape:connector-curvature="0" />
      <path
         d="m 141.69015,1052.3622 q -1.72099,0 -3.12908,-3.7549 -1.64276,-4.0678 -2.42503,-8.3703 l -0.54759,-2.6597 q -2.26858,-11.1864 -2.89439,-12.7509 l -0.93873,0 q 0,2.2685 -0.0782,4.146 l 0,4.3025 q 0,10.4824 1.48631,16.3494 l -0.8605,2.1121 -2.19035,0 -1.01695,-1.1734 0.0782,-5.2412 q 0,-7.0404 -0.70404,-21.3559 -0.62582,-15.2543 -0.62582,-21.356 0,-3.75487 2.58149,-3.75487 4.22425,0 6.88396,2.19037 2.73794,2.1903 2.73794,6.1017 l 0,5.4759 q 0,1.1734 -0.39113,2.7379 -0.39114,1.4863 -0.8605,2.425 l -1.48631,2.8162 -1.25163,2.3468 0.39114,1.8775 1.09517,5.5541 q 1.09518,6.0234 2.11213,9.7783 1.01695,3.7549 2.50326,6.8058 l 0.46936,0.9387 q 0.78227,1.5645 0.78227,2.5032 0,0.7823 -0.46936,1.3299 -0.46937,0.6258 -1.25163,0.6258 z m -9.62191,-31.369 q 1.72099,-0.8605 2.8944,-4.6936 1.25163,-3.9113 1.25163,-7.1968 0,-2.5033 -0.62582,-4.6937 -0.39113,-1.2516 -1.32986,-1.8774 -0.86049,-0.704 -2.19035,-0.704 l -0.15645,0.3911 -0.15646,0.704 0.15646,9.2308 q 0.15645,4.0678 0.15645,8.8396 z"
         style="font-style:normal;font-variant:normal;font-weight:bold;font-stretch:normal;font-family:'Amatic SC';-inkscape-font-specification:'Amatic SC Bold';fill:#b6bda8;fill-opacity:1"
         id="path4860"
         inkscape:connector-curvature="0" />
      <path
         d="m 155.45197,1049.7807 -0.0782,-3.0508 q -0.0782,-1.3299 -0.0782,-2.9726 l 0.0782,-2.6598 q -0.23468,-0.8605 -1.1734,-17.1316 -0.93873,-16.2712 -1.09518,-20.8866 -4.53716,-0.1565 -5.78879,-0.9387 -0.86049,-0.6259 -0.86049,-1.4081 0,-0.6258 0.78227,-1.0952 0.86049,-0.54759 1.72099,-0.54759 2.19035,0 5.31942,0.31291 2.97262,0.39114 5.31943,0.39114 l 0.62581,0 0.62582,0 q 2.42503,0 2.42503,1.87744 0,0.9387 -0.78227,1.5645 -0.78227,0.5476 -1.79921,0.5476 -0.70405,0 -2.0339,-0.2347 l -1.56454,-0.3129 -0.0782,0.3912 -0.0782,0.3911 q 0,6.9622 1.32985,22.2164 1.25163,14.3155 1.25163,22.2165 0,0.9387 -0.86049,1.6427 -0.78227,0.7041 -1.79922,0.7041 l -1.40808,-1.017 z"
         style="font-style:normal;font-variant:normal;font-weight:bold;font-stretch:normal;font-family:'Amatic SC';-inkscape-font-specification:'Amatic SC Bold';fill:#b6bda8;fill-opacity:1"
         id="path4862"
         inkscape:connector-curvature="0" />
      <path
         d="m 183.13327,1052.284 q -2.81616,-0.9387 -6.96219,-0.9387 -1.25163,0.7822 -2.65971,0.7822 -0.93872,0 -1.64276,-0.8605 -0.62582,-0.7822 -0.62582,-1.721 0,-6.571 0.54759,-17.5228 0.46936,-11.6558 0.46936,-17.4446 l 0,-0.5476 q -0.46936,-4.9282 -0.46936,-7.3533 0,-7.43153 2.73794,-7.43153 0.78227,0 1.32986,0.62581 0.62581,0.54762 0.62581,1.32982 0,0.9388 -0.23468,2.9727 -0.23468,1.9556 -0.23468,2.9726 0,5.2412 0.0782,9.4654 0.0782,4.1461 0.0782,9.3873 -0.39113,1.1734 -0.39113,3.2855 l 0,0.9387 -0.15645,6.1799 q -0.15646,2.738 -0.15646,6.2582 0,5.3976 2.58149,5.3976 0.15645,0 0.46936,0 0.39113,-0.078 1.01695,-0.078 0.70404,-0.078 1.79922,-0.078 4.22425,0 4.22425,2.3468 0,0.7822 -0.70405,1.3298 -0.70404,0.5476 -1.72099,0.7041 z"
         style="font-style:normal;font-variant:normal;font-weight:bold;font-stretch:normal;font-family:'Amatic SC';-inkscape-font-specification:'Amatic SC Bold';fill:#b6bda8;fill-opacity:1"
         id="path4864"
         inkscape:connector-curvature="0" />
      <path
         d="m 195.61657,1052.0493 q -1.01695,0 -1.87745,-0.704 -0.78227,-0.7041 -0.86049,-1.721 l 0,-2.0339 0,-1.5646 q -0.0782,-0.704 -0.0782,-1.6427 0,-1.6428 -0.23468,-5.0066 l -0.15646,-5.0065 q 0,-3.8331 0.23469,-11.4211 0.3129,-6.8057 0.3129,-11.4211 0,-1.0952 -0.23468,-3.2855 -0.23468,-2.2686 -0.23468,-3.2856 0,-5.55408 3.28553,-5.55408 2.58149,0 5.94524,1.01698 3.44198,1.0169 3.44198,2.425 0,0.7823 -0.70404,1.4863 -0.62581,0.6258 -1.56454,1.017 -3.28552,-1.1734 -5.94524,-1.5646 0.0782,1.1734 0.0782,3.3638 0,3.1291 -0.0782,5.6323 -0.23468,3.7549 -0.23468,5.6323 l 0.23468,1.2517 1.25163,-0.078 q 0.62582,-0.078 1.56454,-0.078 3.75489,0 3.75489,2.1904 0,0.8605 -0.70404,1.4863 -0.70404,0.5476 -1.79922,0.5476 -1.40808,0 -2.19035,-0.1565 l -1.95567,0 q 0.15645,2.0339 0.15645,5.9453 0,3.9113 -0.0782,7.0404 -0.23468,4.7718 -0.23468,7.1186 0,4.3807 0.15646,4.3807 l 2.58148,-0.078 q 1.32986,-0.078 3.2073,-0.078 2.97262,0 2.97262,1.8774 0,1.0952 -1.01694,1.6428 -0.93873,0.6258 -2.34681,0.6258 l -6.64928,0 z"
         style="font-style:normal;font-variant:normal;font-weight:bold;font-stretch:normal;font-family:'Amatic SC';-inkscape-font-specification:'Amatic SC Bold';fill:#b6bda8;fill-opacity:1"
         id="path4866"
         inkscape:connector-curvature="0" />
      <path
         d="m 218.55293,1049.7807 -0.0782,-3.0508 q -0.0782,-1.3299 -0.0782,-2.9726 l 0.0782,-2.6598 q -0.23468,-0.8605 -1.17341,-17.1316 -0.93872,-16.2712 -1.09517,-20.8866 -4.53716,-0.1565 -5.78879,-0.9387 -0.8605,-0.6259 -0.8605,-1.4081 0,-0.6258 0.78227,-1.0952 0.8605,-0.54759 1.72099,-0.54759 2.19036,0 5.31943,0.31291 2.97262,0.39114 5.31943,0.39114 l 0.62581,0 0.62582,0 q 2.42503,0 2.42503,1.87744 0,0.9387 -0.78227,1.5645 -0.78227,0.5476 -1.79922,0.5476 -0.70404,0 -2.0339,-0.2347 l -1.56453,-0.3129 -0.0782,0.3912 -0.0782,0.3911 q 0,6.9622 1.32986,22.2164 1.25163,14.3155 1.25163,22.2165 0,0.9387 -0.8605,1.6427 -0.78226,0.7041 -1.79921,0.7041 l -1.40809,-1.017 z"
         style="font-style:normal;font-variant:normal;font-weight:bold;font-stretch:normal;font-family:'Amatic SC';-inkscape-font-specification:'Amatic SC Bold';fill:#b6bda8;fill-opacity:1"
         id="path4868"
         inkscape:connector-curvature="0" />
      <path
         d="m 238.56801,1049.7807 -0.0782,-3.0508 q -0.0782,-1.3299 -0.0782,-2.9726 l 0.0782,-2.6598 q -0.23468,-0.8605 -1.1734,-17.1316 -0.93872,-16.2712 -1.09518,-20.8866 -4.53715,-0.1565 -5.78878,-0.9387 -0.8605,-0.6259 -0.8605,-1.4081 0,-0.6258 0.78227,-1.0952 0.86049,-0.54759 1.72099,-0.54759 2.19035,0 5.31943,0.31291 2.97262,0.39114 5.31942,0.39114 l 0.62582,0 0.62581,0 q 2.42503,0 2.42503,1.87744 0,0.9387 -0.78226,1.5645 -0.78227,0.5476 -1.79922,0.5476 -0.70404,0 -2.0339,-0.2347 l -1.56454,-0.3129 -0.0782,0.3912 -0.0782,0.3911 q 0,6.9622 1.32986,22.2164 1.25163,14.3155 1.25163,22.2165 0,0.9387 -0.8605,1.6427 -0.78227,0.7041 -1.79922,0.7041 l -1.40808,-1.017 z"
         style="font-style:normal;font-variant:normal;font-weight:bold;font-stretch:normal;font-family:'Amatic SC';-inkscape-font-specification:'Amatic SC Bold';fill:#b6bda8;fill-opacity:1"
         id="path4870"
         inkscape:connector-curvature="0" />
    </g>
  </g>
  <g
     inkscape:label="Sue"
     inkscape:groupmode="layer"
     id="layer1"
     transform="translate(-2.728e-6,-992.3622)">
    <g
       transform="matrix(1.8963338,0,0,1.8963338,-78.81163,365.70149)"
       style="font-style:normal;font-variant:normal;font-weight:normal;font-stretch:normal;font-size:40px;line-height:125%;font-family:'Shadows Into Light';-inkscape-font-specification:'Shadows Into Light, ';letter-spacing:0px;word-spacing:0px;fill:#000000;fill-opacity:1;stroke:none;stroke-width:1px;stroke-linecap:butt;stroke-linejoin:miter;stroke-opacity:1"
       id="flowRoot3336">
      <path
         d="m 44.68,362.09908 q -1.44,0 -2.48,-0.52 -0.64,-0.36 -0.64,-0.84 0,-0.48 0.24,-0.76 0.24,-0.32 0.68,-0.32 0.4,0 1.16,0.32 0.84,0.32 1.04,0.32 0.76,0 1.36,-0.64 0.64,-0.68 1,-1.76 0.72,-2 0.72,-3.6 0,-1.72 -0.56,-3.6 -0.52,-1.92 -1.44,-3.72 l -0.64,-1.28 q -1,-2 -1.56,-3.16 -0.52,-1.16 -0.92,-2.52 -0.6,-1.92 -0.6,-3.72 0,-1.44 0.48,-2.72 0.52,-1.28 1.52,-2.16 1,-0.96 2.48,-0.96 0.72,0 1.4,0.44 0.68,0.4 0.96,1.04 l -0.68,0.84 q -1.04,0 -1.56,-0.4 -0.72,0.08 -1.28,0.72 -0.52,0.6 -0.8,1.4 -0.24,0.76 -0.24,1.52 0,1.52 0.4,3.12 0.44,1.56 1.12,2.96 l 2.8,5.6 q 0.68,1.44 1.08,3.24 0.4,1.8 0.4,3.6 0,2.64 -1.28,4.96 -0.68,1.2 -1.76,1.88 -1.08,0.72 -2.4,0.72 z"
         style="font-style:normal;font-variant:normal;font-weight:bold;font-stretch:normal;font-family:'Amatic SC';-inkscape-font-specification:'Amatic SC Bold';fill:#807f7c;fill-opacity:1"
         id="path4873"
         inkscape:connector-curvature="0" />
      <path
         d="m 58.985625,361.81908 q -0.96,0 -1.72,-0.44 -0.76,-0.4 -1.24,-1.2 -0.96,-1.68 -1.24,-3.8 -0.28,-1.84 -0.28,-4.4 -0.12,-4.32 -0.12,-10.56 l -0.04,-3.08 q -0.04,-0.24 -0.04,-0.8 -0.08,-1.52 -0.08,-1.84 0.36,-0.84 0.84,-0.84 0.48,0 0.84,0.72 0.4,0.72 0.4,1.56 l 0,10.88 q 0,1.6 0.28,4.24 0.28,3.28 0.28,4.24 0,2.96 2.52,2.96 2.88,0 2.88,-21.52 l 0,-2.24 0,-0.36 q -0.04,-0.12 -0.04,-0.32 0,-0.48 0.2,-0.68 0.24,-0.24 0.88,-0.24 0.52,0 0.8,0.32 0.32,0.28 0.4,0.68 0.04,0.24 0.04,0.92 0,0.64 -0.12,2.04 -0.16,1.16 -0.16,2 0,0.92 -0.08,1.64 l -0.08,1.68 0,0.32 q 0.04,0.16 0.04,0.36 0,17.76 -5.16,17.76 z"
         style="font-style:normal;font-variant:normal;font-weight:bold;font-stretch:normal;font-family:'Amatic SC';-inkscape-font-specification:'Amatic SC Bold';fill:#807f7c;fill-opacity:1"
         id="path4875"
         inkscape:connector-curvature="0" />
      <path
         d="m 70.99875,361.73908 q -0.52,0 -0.96,-0.36 -0.4,-0.36 -0.44,-0.88 l 0,-1.04 0,-0.8 q -0.04,-0.36 -0.04,-0.84 0,-0.84 -0.12,-2.56 l -0.08,-2.56 q 0,-1.96 0.12,-5.84 0.16,-3.48 0.16,-5.84 0,-0.56 -0.12,-1.68 -0.12,-1.16 -0.12,-1.68 0,-2.84 1.68,-2.84 1.32,0 3.04,0.52 1.76,0.52 1.76,1.24 0,0.4 -0.36,0.76 -0.32,0.32 -0.8,0.52 -1.68,-0.6 -3.04,-0.8 0.04,0.6 0.04,1.72 0,1.6 -0.04,2.88 -0.12,1.92 -0.12,2.88 l 0.12,0.64 0.64,-0.04 q 0.32,-0.04 0.8,-0.04 1.92,0 1.92,1.12 0,0.44 -0.36,0.76 -0.36,0.28 -0.92,0.28 -0.72,0 -1.12,-0.08 l -1,0 q 0.08,1.04 0.08,3.04 0,2 -0.04,3.6 -0.12,2.44 -0.12,3.64 0,2.24 0.08,2.24 l 1.32,-0.04 q 0.68,-0.04 1.64,-0.04 1.52,0 1.52,0.96 0,0.56 -0.52,0.84 -0.48,0.32 -1.2,0.32 l -3.4,0 z"
         style="font-style:normal;font-variant:normal;font-weight:bold;font-stretch:normal;font-family:'Amatic SC';-inkscape-font-specification:'Amatic SC Bold';fill:#807f7c;fill-opacity:1"
         id="path4877"
         inkscape:connector-curvature="0" />
    </g>
  </g>
</svg>
